<?xml version="1.0" encoding="utf-8"?>
<!-- Generator: Adobe Illustrator 16.0.0, SVG Export Plug-In . SVG Version: 6.00 Build 0)  -->
<!DOCTYPE svg PUBLIC "-//W3C//DTD SVG 1.1//EN" "http://www.w3.org/Graphics/SVG/1.1/DTD/svg11.dtd">
<svg version="1.1" id="Layer_1" xmlns="http://www.w3.org/2000/svg" xmlns:xlink="http://www.w3.org/1999/xlink" x="0px" y="0px"
	 width="612px" height="792px" viewBox="0 0 612 792" enable-background="new 0 0 612 792" xml:space="preserve">
<g>
	<path fill="#336699" d="M251.416,261.622c-13.91,1.326-34.997,8.769-9.796,19.46c12.634,5.358-30.05-11.103,9.762-13.59"/>
	<path fill="#336699" d="M250.525,312.727c13.91-1.326,34.996-8.769,9.796-19.462c-12.633-5.357,30.05,11.103-9.761,13.592"/>
	<path fill="#336699" d="M250.634,283.884c39.811-2.489-2.872-18.949,9.761-13.59c25.201,10.691,5.118,18.135-8.794,19.459l0,0
		c-39.638,2.636,2.872,18.947-9.761,13.59C216.641,292.65,236.723,285.209,250.634,283.884"/>
</g>
<g>
	<path fill="#336699" d="M319.821,270.605c-0.706,0.254-1.195,0.86-1.468,1.816c-0.273,0.956-0.508,2.834-0.7,5.637
		c-0.417,6.465-0.739,12.072-0.963,16.817l-0.333,7.405h-0.236h-1.14h-0.238l-0.809-0.986l-5.004-5.617l-11.2-13.141
		c-1.652-1.968-3.304-3.983-4.956-6.047v1.906c0,1.526,0.112,5.388,0.337,11.584c0.127,3.846,0.334,7.041,0.624,9.582
		c0.127,1.304,0.577,2.146,1.345,2.527v0.191c-1.367-0.126-2.48-0.19-3.339-0.19c-0.985,0-2.319,0.063-4.004,0.19v-0.191
		c0.696-0.382,1.154-0.939,1.376-1.672c0.222-0.732,0.491-2.595,0.807-5.59c0.633-5.987,0.949-11.53,0.949-16.626
		c0-2.356-0.27-4.052-0.808-5.087c-0.537-1.035-1.583-1.872-3.135-2.509v-0.191c1.08,0.175,2.32,0.263,3.719,0.263
		c1.367,0,2.511-0.087,3.433-0.263l0.382,0.574c2.86,4.302,5.848,8.317,8.962,12.045c0.922,1.116,2.622,3.076,5.101,5.879
		l6.388,7.218c0.063-1.53,0.096-3.314,0.096-5.354c0-8.316-0.237-14.116-0.714-17.398c-0.224-1.466-0.844-2.39-1.86-2.773v-0.191
		c1.684,0.175,3.179,0.263,4.482,0.263c1.174,0,2.144-0.087,2.907-0.263V270.605z"/>
	<path fill="#336699" d="M350.192,296.561c-1.749,1.465-3.48,3.327-5.197,5.588c-1.43,0.35-2.812,0.525-4.147,0.525
		c-5.308,0-9.502-1.415-12.586-4.246c-3.082-2.831-4.624-6.68-4.624-11.547c0-5.121,1.59-9.2,4.768-12.238
		c3.179-3.038,7.437-4.557,12.777-4.557c1.906,0,3.988,0.195,6.245,0.583c0.952,0.162,1.572,0.243,1.859,0.243h0.524
		c-0.985,2.289-1.478,4.704-1.478,7.246h-0.811c-0.032-1.315-0.397-2.262-1.097-2.841c-1.875-1.604-4.799-2.406-8.771-2.406
		c-3.687,0-6.165,0.875-7.436,2.625c-1.717,2.355-2.575,5.553-2.575,9.594c0,4.295,1.169,7.637,3.503,10.022
		c2.337,2.387,5.618,3.58,9.845,3.58c3.494,0,6.339-1.042,8.531-3.126C349.652,295.797,349.874,296.115,350.192,296.561z"/>
	<path fill="#336699" d="M377.074,292.655c0,2.99-1.208,5.408-3.622,7.253c-2.416,1.845-5.609,2.767-9.583,2.767
		c-0.445,0-1.287-0.049-2.526-0.148c-2.065-0.164-4.211-0.246-6.436-0.246h-1.525v-0.191c0.926-0.318,1.501-1.083,1.725-2.293
		c0.255-1.433,0.43-3.742,0.526-6.928c0.032-1.242,0.049-3.169,0.049-5.781c0-3.312-0.017-5.717-0.049-7.214
		c-0.063-3.28-0.239-5.605-0.526-6.975c-0.256-1.274-0.83-2.039-1.725-2.293v-0.191c0.954,0.175,1.924,0.263,2.909,0.263
		c-0.224,0,0.27-0.017,1.479-0.049c0.636-0.033,1.446-0.066,2.432-0.099l2.433-0.247c1.303-0.131,2.431-0.197,3.386-0.197
		c5.372,0,8.059,2.067,8.059,6.203c0,1.622-0.382,3.029-1.146,4.223c-0.764,1.193-2.196,2.648-4.296,4.366
		c2.384,0.382,4.212,1.05,5.482,2.004C376.089,288.312,377.074,290.237,377.074,292.655z M370.005,278.352
		c0-1.973-0.632-3.548-1.895-4.726c-1.263-1.177-2.965-1.767-5.106-1.767c-0.734,0-1.886,0.128-3.451,0.383
		c-0.128,2.333-0.192,5.527-0.192,9.584v2.779h1.008h2.062c1.406,0,2.876-0.047,4.411-0.144
		C368.949,282.744,370.005,280.707,370.005,278.352z M372.689,294.485c0-2.443-0.85-4.428-2.548-5.951
		c-1.697-1.523-3.911-2.285-6.64-2.285c0.254,0-0.572,0.032-2.475,0.096c-0.953,0.032-1.477,0.047-1.571,0.047
		c-0.063,2.222-0.096,3.381-0.096,3.475c0,3.238,0.111,6.238,0.334,8.999c2.316,1.27,4.568,1.904,6.759,1.904
		C370.61,300.769,372.689,298.675,372.689,294.485z"/>
	<path fill="#336699" d="M389.326,302.28c-2.035-0.126-3.448-0.19-4.243-0.19c-1.081,0-2.05,0.032-2.907,0.094l-1.287,0.096v-0.191
		c0.926-0.318,1.501-1.083,1.725-2.293c0.287-1.561,0.463-3.87,0.526-6.928c0.032-1.527,0.049-3.694,0.049-6.498
		c0-4.872-0.065-8.376-0.192-10.51c-0.063-1.018-0.192-2.006-0.383-2.961c-0.256-1.274-0.831-2.039-1.725-2.293v-0.191l1.43,0.131
		c0.953,0.088,1.892,0.131,2.813,0.131c1.175,0,2.573-0.087,4.194-0.263v0.191c-0.894,0.254-1.446,1.019-1.662,2.293
		c-0.277,1.497-0.445,3.822-0.507,6.975c-0.062,2.931-0.093,5.097-0.093,6.497c0,3.313,0.077,6.8,0.231,10.463
		c0.03,0.796,0.152,1.792,0.368,2.985c0.216,1.195,0.769,1.952,1.662,2.27V302.28z"/>
</g>
</svg>
